<svg xmlns="http://www.w3.org/2000/svg" version="1.1" xmlns:xlink="http://www.w3.org/1999/xlink" xmlns:svgjs="http://svgjs.dev/svgjs" width="1500" height="1500" viewBox="0 0 1500 1500"><rect width="1500" height="1500" fill="#ffffff"></rect><g transform="matrix(0.6666666666666666,0,0,0.6666666666666666,249.39393939429652,435.99032258064517)"><svg viewBox="0 0 396 248" data-background-color="#000000" preserveAspectRatio="xMidYMid meet" height="939" width="1500" xmlns="http://www.w3.org/2000/svg" xmlns:xlink="http://www.w3.org/1999/xlink"><g id="tight-bounds" transform="matrix(1,0,0,1,0.23999999985858267,0.4000000000000057)"><svg viewBox="0 0 395.52 247.2" height="247.2" width="395.52"><g><svg></svg></g><g><svg viewBox="0 0 395.52 247.2" height="247.2" width="395.52"><g><path d="M55.039 247.2l26.415-45.752 3.418 0-24.613 42.63h275.002l-24.613-42.63h3.418l26.415 45.752zM197.76 0l26.415 45.752-3.418 0-22.997-39.833-22.997 39.833-3.418 0z" fill="#000000" fill-rule="nonzero" stroke="none" stroke-width="1" stroke-linecap="butt" stroke-linejoin="miter" stroke-miterlimit="10" stroke-dasharray="" stroke-dashoffset="0" font-family="none" font-weight="none" font-size="none" text-anchor="none" style="mix-blend-mode: normal" data-fill-palette-color="tertiary"></path></g><g transform="matrix(1,0,0,1,0,67.99443339651722)"><svg viewBox="0 0 395.52 111.21113320696554" height="111.21113320696554" width="395.52"><g><svg viewBox="0 0 395.52 111.21113320696554" height="111.21113320696554" width="395.52"><g><svg viewBox="0 0 395.52 111.21113320696554" height="111.21113320696554" width="395.52"><g><svg viewBox="0 0 395.52 111.21113320696554" height="111.21113320696554" width="395.52"><g id="textblocktransform"><svg viewBox="0 0 395.52 111.21113320696554" height="111.21113320696554" width="395.52" id="textblock"><g><svg viewBox="0 0 395.52 81.09944408749337" height="81.09944408749337" width="395.52"><g transform="matrix(1,0,0,1,0,0)"><svg width="395.52" viewBox="1.98 -35.35 174.76999999977502 35.84" height="81.09944408749337" data-palette-color="#ffffff"><path d="M7.84 0L7.84 0 2.17 0Q1.98 0 1.98-0.24L1.98-0.24 2.08-34.59Q2.08-34.79 2.27-34.79L2.27-34.79 8.37-34.79Q8.57-34.79 8.72-34.59L8.72-34.59 13.28-28 17.82-34.59Q17.97-34.79 18.19-34.79L18.19-34.79 24.32-34.79Q24.54-34.79 24.54-34.59L24.54-34.59 24.63-0.24Q24.63 0 24.44 0L24.44 0 18.77 0Q18.58 0 18.58-0.24L18.58-0.24 18.53-25.76 13.28-18.14 8.08-25.76 8.03-0.24Q8.03 0 7.84 0ZM38.06 0.49L38.06 0.49Q35.4 0.49 33.15-0.88L33.15-0.88Q30.93-2.25 29.58-4.53 28.22-6.81 28.22-9.55L28.22-9.55 28.27-25.39Q28.27-28.17 29.61-30.4L29.61-30.4Q30.93-32.64 33.18-34 35.42-35.35 38.06-35.35L38.06-35.35Q40.79-35.35 42.97-34.01L42.97-34.01Q45.16-32.67 46.49-30.41 47.82-28.15 47.82-25.39L47.82-25.39 47.87-9.55Q47.87-6.81 46.56-4.54L46.56-4.54Q45.21-2.25 42.99-0.88 40.77 0.49 38.06 0.49ZM38.06-5.54L38.06-5.54Q39.57-5.54 40.7-6.77 41.82-8.01 41.82-9.55L41.82-9.55 41.77-25.39Q41.77-27.05 40.72-28.2 39.67-29.35 38.06-29.35L38.06-29.35Q36.52-29.35 35.42-28.22 34.32-27.1 34.32-25.39L34.32-25.39 34.32-9.55Q34.32-7.91 35.42-6.73 36.52-5.54 38.06-5.54ZM60.13 0.49L60.13 0.49Q57.47 0.49 55.22-0.88L55.22-0.88Q53-2.25 51.67-4.53 50.34-6.81 50.34-9.55L50.34-9.55 50.34-11.84Q50.34-12.11 50.58-12.11L50.58-12.11 56.2-12.11Q56.39-12.11 56.39-11.84L56.39-11.84 56.39-9.55Q56.39-7.91 57.49-6.73 58.59-5.54 60.13-5.54L60.13-5.54Q61.69-5.54 62.79-6.75 63.89-7.96 63.89-9.55L63.89-9.55Q63.89-11.38 61.49-12.74L61.49-12.74Q61.1-12.99 60.48-13.34 59.86-13.7 59-14.16L59-14.16Q58.15-14.62 57.34-15.08 56.54-15.53 55.78-15.94L55.78-15.94Q53.05-17.55 51.72-19.98 50.39-22.41 50.39-25.44L50.39-25.44Q50.39-28.22 51.75-30.47L51.75-30.47Q53.12-32.69 55.33-34 57.54-35.3 60.13-35.3L60.13-35.3Q62.79-35.3 65.01-33.98L65.01-33.98Q67.23-32.64 68.56-30.42 69.89-28.2 69.89-25.44L69.89-25.44 69.89-21.34Q69.89-21.14 69.7-21.14L69.7-21.14 64.08-21.14Q63.89-21.14 63.89-21.34L63.89-21.34 63.84-25.44Q63.84-27.2 62.74-28.3 61.64-29.39 60.13-29.39L60.13-29.39Q58.59-29.39 57.49-28.22 56.39-27.05 56.39-25.44L56.39-25.44Q56.39-23.8 57.09-22.71 57.78-21.61 59.64-20.61L59.64-20.61Q59.83-20.51 60.54-20.12 61.25-19.73 62.12-19.25 62.98-18.77 63.69-18.4 64.4-18.02 64.55-17.94L64.55-17.94Q67.04-16.55 68.49-14.53 69.94-12.5 69.94-9.55L69.94-9.55Q69.94-6.69 68.62-4.42L68.62-4.42Q67.28-2.15 65.06-0.83 62.84 0.49 60.13 0.49ZM71.72-0.24L71.72-0.24 77.92-34.59Q77.97-34.79 78.17-34.79L78.17-34.79 85.42-34.79Q85.61-34.79 85.66-34.59L85.66-34.59 91.62-0.24Q91.64 0 91.42 0L91.42 0 85.88 0Q85.64 0 85.61-0.24L85.61-0.24 85.08-3.91 78.26-3.91 77.73-0.24Q77.7 0 77.48 0L77.48 0 71.92 0Q71.72 0 71.72-0.24ZM84.07-9.25L82.02-23.29 81.73-25.15 81.51-23.29 79.26-9.25 84.07-9.25ZM100.65 0L100.65 0 94.99 0Q94.74 0 94.74-0.24L94.74-0.24 94.79-34.59Q94.79-34.79 94.99-34.79L94.99-34.79 100.6-34.79Q100.8-34.79 100.8-34.59L100.8-34.59 100.84-0.24Q100.84 0 100.65 0ZM114.44 0.49L114.44 0.49Q111.73 0.49 109.48-0.88L109.48-0.88Q107.26-2.25 105.96-4.55 104.65-6.86 104.65-9.69L104.65-9.69 104.7-25.29Q104.7-28.08 105.97-30.32L105.97-30.32Q107.24-32.59 109.47-33.97 111.71-35.35 114.44-35.35L114.44-35.35Q117.22-35.35 119.4-34.01L119.4-34.01Q121.59-32.67 122.9-30.38 124.21-28.1 124.21-25.29L124.21-25.29 124.21-23Q124.21-22.8 124.01-22.8L124.01-22.8 118.4-22.8Q118.2-22.8 118.2-23L118.2-23 118.2-25.29Q118.2-26.95 117.13-28.15 116.05-29.35 114.44-29.35L114.44-29.35Q112.66-29.35 111.71-28.13 110.75-26.9 110.75-25.29L110.75-25.29 110.75-9.69Q110.75-7.86 111.83-6.7 112.9-5.54 114.44-5.54L114.44-5.54Q116.05-5.54 117.13-6.82 118.2-8.11 118.2-9.69L118.2-9.69 118.2-12.01Q118.2-12.21 118.4-12.21L118.4-12.21 124.06-12.21Q124.26-12.21 124.26-12.01L124.26-12.01 124.26-9.69Q124.26-6.88 122.94-4.57L122.94-4.57Q121.59-2.27 119.4-0.89 117.2 0.49 114.44 0.49ZM133.77 0L133.77 0 128.11 0Q127.87 0 127.87-0.24L127.87-0.24 127.91-34.59Q127.91-34.79 128.11-34.79L128.11-34.79 133.73-34.79Q133.92-34.79 133.92-34.59L133.92-34.59 133.97-0.24Q133.97 0 133.77 0ZM144.22 0L144.22 0 138.61 0Q138.36 0 138.36-0.24L138.36-0.24 138.46-34.59Q138.46-34.79 138.65-34.79L138.65-34.79 154.67-34.79Q154.91-34.79 154.91-34.59L154.91-34.59 154.91-28.96Q154.91-28.76 154.72-28.76L154.72-28.76 144.46-28.76 144.46-21 154.72-21Q154.91-21 154.91-20.75L154.91-20.75 154.96-15.09Q154.96-14.89 154.72-14.89L154.72-14.89 144.46-14.89 144.46-0.24Q144.46 0 144.22 0ZM169.83 0L169.83 0 164.09 0Q163.92 0 163.92-0.2L163.92-0.2 163.97-14.4 157.28-34.59Q157.23-34.79 157.43-34.79L157.43-34.79 162.99-34.79Q163.24-34.79 163.29-34.59L163.29-34.59 166.97-21.14 170.73-34.59Q170.78-34.79 170.98-34.79L170.98-34.79 176.59-34.79Q176.79-34.79 176.74-34.59L176.74-34.59 169.98-14.6 170.02-0.2Q170.02 0 169.83 0Z" opacity="1" transform="matrix(1,0,0,1,0,0)" fill="#000000" class="wordmark-text-0" data-fill-palette-color="primary" id="text-0"></path></svg></g></svg></g><g transform="matrix(1,0,0,1,0,92.93379936651675)"><svg viewBox="0 0 395.52 18.277333840448797" height="18.277333840448797" width="395.52"><g transform="matrix(1,0,0,1,0,0)"><svg width="395.52" viewBox="0.75 -37 1051.59 48.6" height="18.277333840448797" data-palette-color="#ffffff"><path d="M16.15 0L10.25 0 0.75-33.85 5.45-35.35 13.35-5.05 20.8-31.35 26.75-31.35 34.15-5.05 42-35.2 46.4-33.85 36.95 0 31.05 0 23.65-26.3 16.15 0ZM55.65 0L51.15 0 51.15-37 55.65-37 55.65-21.85Q57.05-23.9 59.2-25.25 61.35-26.6 64.25-26.6L64.25-26.6Q68.65-26.6 70.82-23.95 73-21.3 73-16.95L73-16.95 73 0 68.5 0 68.5-16.45Q68.5-19.25 67.2-20.95 65.9-22.65 63.55-22.65L63.55-22.65Q61.25-22.65 59.17-21.03 57.1-19.4 55.65-17.2L55.65-17.2 55.65 0ZM91.15 0.6L91.15 0.6Q85.55 0.6 82.27-2.98 79-6.55 79-13L79-13Q79-16.9 80.47-19.98 81.95-23.05 84.59-24.83 87.25-26.6 90.75-26.6L90.75-26.6Q94.5-26.6 96.97-24.98 99.45-23.35 100.7-20.6 101.95-17.85 101.95-14.55L101.95-14.55Q101.95-12.8 101.8-11.15L101.8-11.15 83.59-11.15Q84.05-7.5 86.15-5.45 88.25-3.4 91.7-3.4L91.7-3.4Q93.95-3.4 95.75-3.88 97.55-4.35 99.2-5.1L99.2-5.1 100.25-1.25Q98.45-0.45 96.2 0.08 93.95 0.6 91.15 0.6ZM83.55-14.8L83.55-14.8 97.8-14.8Q97.8-18.6 95.9-20.65 94-22.7 90.65-22.7L90.65-22.7Q87.75-22.7 85.84-20.68 83.95-18.65 83.55-14.8ZM112.44 0L107.94 0 107.94-26 112.29-26 112.29-20.35Q112.94-22 114.04-23.43 115.14-24.85 116.79-25.73 118.44-26.6 120.64-26.6L120.64-26.6Q121.39-26.6 122.14-26.53 122.89-26.45 123.39-26.3L123.39-26.3 122.04-21.65Q121.09-22.05 119.79-22.05L119.79-22.05Q117.94-22.05 116.27-21 114.59-19.95 113.52-17.75 112.44-15.55 112.44-12.15L112.44-12.15 112.44 0ZM136.79 0.6L136.79 0.6Q131.19 0.6 127.92-2.98 124.64-6.55 124.64-13L124.64-13Q124.64-16.9 126.12-19.98 127.59-23.05 130.24-24.83 132.89-26.6 136.39-26.6L136.39-26.6Q140.14-26.6 142.62-24.98 145.09-23.35 146.34-20.6 147.59-17.85 147.59-14.55L147.59-14.55Q147.59-12.8 147.44-11.15L147.44-11.15 129.24-11.15Q129.69-7.5 131.79-5.45 133.89-3.4 137.34-3.4L137.34-3.4Q139.59-3.4 141.39-3.88 143.19-4.35 144.84-5.1L144.84-5.1 145.89-1.25Q144.09-0.45 141.84 0.08 139.59 0.6 136.79 0.6ZM129.19-14.8L129.19-14.8 143.44-14.8Q143.44-18.6 141.54-20.65 139.64-22.7 136.29-22.7L136.29-22.7Q133.39-22.7 131.49-20.68 129.59-18.65 129.19-14.8ZM178.99 0.6L178.99 0.6Q173.39 0.6 170.11-2.98 166.84-6.55 166.84-13L166.84-13Q166.84-16.9 168.31-19.98 169.79-23.05 172.44-24.83 175.09-26.6 178.59-26.6L178.59-26.6Q182.34-26.6 184.81-24.98 187.29-23.35 188.54-20.6 189.79-17.85 189.79-14.55L189.79-14.55Q189.79-12.8 189.64-11.15L189.64-11.15 171.44-11.15Q171.89-7.5 173.99-5.45 176.09-3.4 179.54-3.4L179.54-3.4Q181.79-3.4 183.59-3.88 185.39-4.35 187.04-5.1L187.04-5.1 188.09-1.25Q186.29-0.45 184.04 0.08 181.79 0.6 178.99 0.6ZM171.39-14.8L171.39-14.8 185.64-14.8Q185.64-18.6 183.74-20.65 181.84-22.7 178.49-22.7L178.49-22.7Q175.59-22.7 173.69-20.68 171.79-18.65 171.39-14.8ZM207.43 0L202.73 0 192.28-24.8 196.38-26.5 205.23-5.1 214.08-26.5 217.93-24.8 207.43 0ZM231.83 0.6L231.83 0.6Q226.23 0.6 222.96-2.98 219.68-6.55 219.68-13L219.68-13Q219.68-16.9 221.16-19.98 222.63-23.05 225.28-24.83 227.93-26.6 231.43-26.6L231.43-26.6Q235.18-26.6 237.66-24.98 240.13-23.35 241.38-20.6 242.63-17.85 242.63-14.55L242.63-14.55Q242.63-12.8 242.48-11.15L242.48-11.15 224.28-11.15Q224.73-7.5 226.83-5.45 228.93-3.4 232.38-3.4L232.38-3.4Q234.63-3.4 236.43-3.88 238.23-4.35 239.88-5.1L239.88-5.1 240.93-1.25Q239.13-0.45 236.88 0.08 234.63 0.6 231.83 0.6ZM224.23-14.8L224.23-14.8 238.48-14.8Q238.48-18.6 236.58-20.65 234.68-22.7 231.33-22.7L231.33-22.7Q228.43-22.7 226.53-20.68 224.63-18.65 224.23-14.8ZM253.13 0L248.63 0 248.63-26 252.98-26 252.98-20.35Q253.63-22 254.73-23.43 255.83-24.85 257.48-25.73 259.13-26.6 261.33-26.6L261.33-26.6Q262.08-26.6 262.83-26.53 263.58-26.45 264.08-26.3L264.08-26.3 262.73-21.65Q261.78-22.05 260.48-22.05L260.48-22.05Q258.63-22.05 256.95-21 255.28-19.95 254.2-17.75 253.13-15.55 253.13-12.15L253.13-12.15 253.13 0ZM269.23 11.6L269.23 11.6Q267.73 11.6 266.6 11.3 265.48 11 264.83 10.6L264.83 10.6 265.83 6.85Q266.43 7.2 267.33 7.45 268.23 7.7 269.33 7.7L269.33 7.7Q271.43 7.7 273.08 6.35 274.73 5 276.23 1.05L276.23 1.05 277.38-1.95 274.98-1.95 264.83-24.8 268.83-26.6 278.53-4.95 286.08-26.4 290.23-24.8 280.68 1.3Q279.23 5.3 277.53 7.55 275.83 9.8 273.78 10.7 271.73 11.6 269.23 11.6ZM315.17 11L310.67 11 310.67-19.35Q310.67-21.05 309.85-21.78 309.02-22.5 307.72-22.5L307.72-22.5 308.67-26Q313.27-26 314.42-22.35L314.42-22.35Q314.92-23.1 316.05-24.1 317.17-25.1 318.85-25.85 320.52-26.6 322.67-26.6L322.67-26.6Q325.67-26.6 328.3-25.03 330.92-23.45 332.52-20.48 334.12-17.5 334.12-13.25L334.12-13.25Q334.12-9.1 332.52-5.98 330.92-2.85 328.35-1.13 325.77 0.6 322.77 0.6L322.77 0.6Q320.47 0.6 318.47-0.33 316.47-1.25 315.17-2.45L315.17-2.45 315.17 11ZM321.87-3.4L321.87-3.4Q325.27-3.4 327.4-6.08 329.52-8.75 329.52-13.1L329.52-13.1Q329.52-16.1 328.45-18.25 327.37-20.4 325.6-21.55 323.82-22.7 321.67-22.7L321.67-22.7Q319.52-22.7 317.8-21.63 316.07-20.55 315.17-19.3L315.17-19.3 315.17-6.5Q316.47-5.15 318.17-4.28 319.87-3.4 321.87-3.4ZM344.87 0L340.37 0 340.37-26 344.87-26 344.87 0ZM342.62-30.45L342.62-30.45Q341.32-30.45 340.39-31.4 339.47-32.35 339.47-33.6L339.47-33.6Q339.47-35.05 340.32-35.9 341.17-36.75 342.62-36.75L342.62-36.75Q343.92-36.75 344.84-35.83 345.77-34.9 345.77-33.6L345.77-33.6Q345.77-32.2 344.92-31.33 344.07-30.45 342.62-30.45ZM363.37 0.6L363.37 0.6Q359.67 0.6 356.89-1.13 354.12-2.85 352.62-5.93 351.12-9 351.12-13L351.12-13Q351.12-16.75 352.64-19.85 354.17-22.95 357.01-24.78 359.87-26.6 363.72-26.6L363.72-26.6Q365.92-26.6 367.59-26.2 369.26-25.8 370.81-25.05L370.81-25.05 369.47-21.25Q368.06-21.95 366.79-22.28 365.51-22.6 363.97-22.6L363.97-22.6Q360.47-22.6 358.09-20.08 355.72-17.55 355.72-13.1L355.72-13.1Q355.72-10.4 356.72-8.2 357.72-6 359.49-4.7 361.26-3.4 363.67-3.4L363.67-3.4Q365.56-3.4 366.92-3.83 368.26-4.25 369.81-5.05L369.81-5.05 371.22-1.25Q369.67-0.4 367.74 0.1 365.81 0.6 363.37 0.6ZM385.56 0.6L385.56 0.6Q381.81 0.6 379.64-1.88 377.46-4.35 377.46-8.95L377.46-8.95 377.46-21.15 372.96-21.15 372.96-25.05 377.56-25.05 378.51-33.25 381.96-33.25 381.96-25.05 389.16-25.05 389.16-21.15 381.96-21.15 381.96-8.6Q381.96-5.7 383.19-4.55 384.41-3.4 386.11-3.4L386.11-3.4Q387.36-3.4 388.49-3.8 389.61-4.2 390.56-4.75L390.56-4.75 391.81-1.15Q390.81-0.55 389.11 0.03 387.41 0.6 385.56 0.6ZM404.56 0.6L404.56 0.6Q402.31 0.6 400.31-0.35 398.31-1.3 397.06-3.43 395.81-5.55 395.81-9.1L395.81-9.1 395.81-26 400.31-26 400.31-9.7Q400.31-6.65 401.61-5.03 402.91-3.4 405.41-3.4L405.41-3.4Q407.46-3.4 409.39-4.23 411.31-5.05 412.81-6.45L412.81-6.45 412.81-26 417.31-26 417.31-6.75Q417.31-4.6 418.24-3.93 419.16-3.25 420.26-3.25L420.26-3.25 419.31 0.25Q414.66 0.25 413.56-3.45L413.56-3.45Q411.81-1.65 409.51-0.53 407.21 0.6 404.56 0.6ZM430.76 0L426.26 0 426.26-26 430.61-26 430.61-20.35Q431.26-22 432.36-23.43 433.46-24.85 435.11-25.73 436.76-26.6 438.96-26.6L438.96-26.6Q439.71-26.6 440.46-26.53 441.21-26.45 441.71-26.3L441.71-26.3 440.36-21.65Q439.41-22.05 438.11-22.05L438.11-22.05Q436.26-22.05 434.58-21 432.91-19.95 431.83-17.75 430.76-15.55 430.76-12.15L430.76-12.15 430.76 0ZM455.11 0.6L455.11 0.6Q449.51 0.6 446.23-2.98 442.96-6.55 442.96-13L442.96-13Q442.96-16.9 444.43-19.98 445.91-23.05 448.56-24.83 451.21-26.6 454.71-26.6L454.71-26.6Q458.46-26.6 460.93-24.98 463.41-23.35 464.66-20.6 465.91-17.85 465.91-14.55L465.91-14.55Q465.91-12.8 465.76-11.15L465.76-11.15 447.56-11.15Q448.01-7.5 450.11-5.45 452.21-3.4 455.66-3.4L455.66-3.4Q457.91-3.4 459.71-3.88 461.51-4.35 463.16-5.1L463.16-5.1 464.21-1.25Q462.41-0.45 460.16 0.08 457.91 0.6 455.11 0.6ZM447.51-14.8L447.51-14.8 461.76-14.8Q461.76-18.6 459.86-20.65 457.96-22.7 454.61-22.7L454.61-22.7Q451.71-22.7 449.81-20.68 447.91-18.65 447.51-14.8ZM496 0.6L496 0.6Q492.25 0.6 490.08-1.88 487.9-4.35 487.9-8.95L487.9-8.95 487.9-21.15 483.4-21.15 483.4-25.05 488-25.05 488.95-33.25 492.4-33.25 492.4-25.05 499.6-25.05 499.6-21.15 492.4-21.15 492.4-8.6Q492.4-5.7 493.63-4.55 494.85-3.4 496.55-3.4L496.55-3.4Q497.8-3.4 498.93-3.8 500.05-4.2 501-4.75L501-4.75 502.25-1.15Q501.25-0.55 499.55 0.03 497.85 0.6 496 0.6ZM516.15 0.6L516.15 0.6Q510.55 0.6 507.27-2.98 504-6.55 504-13L504-13Q504-16.9 505.47-19.98 506.95-23.05 509.6-24.83 512.25-26.6 515.75-26.6L515.75-26.6Q519.5-26.6 521.97-24.98 524.45-23.35 525.7-20.6 526.95-17.85 526.95-14.55L526.95-14.55Q526.95-12.8 526.8-11.15L526.8-11.15 508.6-11.15Q509.05-7.5 511.15-5.45 513.25-3.4 516.7-3.4L516.7-3.4Q518.95-3.4 520.75-3.88 522.55-4.35 524.2-5.1L524.2-5.1 525.25-1.25Q523.45-0.45 521.2 0.08 518.95 0.6 516.15 0.6ZM508.55-14.8L508.55-14.8 522.8-14.8Q522.8-18.6 520.9-20.65 519-22.7 515.65-22.7L515.65-22.7Q512.75-22.7 510.85-20.68 508.95-18.65 508.55-14.8ZM540.85 0.6L540.85 0.6Q538.55 0.6 536.7-0.28 534.85-1.15 533.77-3.1 532.7-5.05 532.7-8.15L532.7-8.15 532.7-37 537.2-37 537.2-8.6Q537.2-5.9 538.32-4.6 539.45-3.3 541.45-3.3L541.45-3.3Q542.4-3.3 543.32-3.53 544.25-3.75 544.9-4.05L544.9-4.05 546-0.4Q545.1 0 543.77 0.3 542.45 0.6 540.85 0.6ZM557.64 0.6L557.64 0.6Q555.34 0.6 553.49-0.28 551.64-1.15 550.57-3.1 549.49-5.05 549.49-8.15L549.49-8.15 549.49-37 553.99-37 553.99-8.6Q553.99-5.9 555.12-4.6 556.24-3.3 558.24-3.3L558.24-3.3Q559.19-3.3 560.12-3.53 561.04-3.75 561.69-4.05L561.69-4.05 562.79-0.4Q561.89 0 560.57 0.3 559.24 0.6 557.64 0.6ZM574.04 0.6L574.04 0.6Q571.09 0.6 568.71-0.15 566.34-0.9 564.79-2.1L564.79-2.1 566.69-5.85Q567.99-4.75 569.96-4.03 571.94-3.3 574.19-3.3L574.19-3.3Q576.99-3.3 578.41-4.23 579.84-5.15 579.84-6.6L579.84-6.6Q579.84-7.65 579.31-8.45 578.79-9.25 577.39-10.03 575.99-10.8 573.34-11.7L573.34-11.7Q569.69-12.95 567.86-14.68 566.04-16.4 566.04-19.45L566.04-19.45Q566.04-22.45 568.66-24.53 571.29-26.6 575.94-26.6L575.94-26.6Q578.44-26.6 580.39-26.08 582.34-25.55 583.89-24.75L583.89-24.75 582.64-21.05Q581.29-21.85 579.56-22.35 577.84-22.85 575.74-22.85L575.74-22.85Q573.14-22.85 571.79-21.8 570.44-20.75 570.44-19.5L570.44-19.5Q570.44-18.3 571.49-17.45 572.54-16.6 575.59-15.6L575.59-15.6Q580.54-13.95 582.49-11.95 584.44-9.95 584.44-6.95L584.44-6.95Q584.44-3.45 581.61-1.43 578.79 0.6 574.04 0.6ZM615.38 0.6L615.38 0.6Q612.13 0.6 609.48-1.05 606.83-2.7 605.26-5.73 603.68-8.75 603.68-12.85L603.68-12.85Q603.68-16.75 605.26-19.85 606.83-22.95 609.61-24.78 612.38-26.6 615.98-26.6L615.98-26.6Q618.23-26.6 620.06-25.83 621.88-25.05 623.23-23.9L623.23-23.9 623.23-26 627.33-26 627.33-6.3Q627.33-4.4 628.26-3.83 629.18-3.25 630.28-3.25L630.28-3.25 629.33 0.25Q624.53 0.25 623.53-3.65L623.53-3.65Q622.38-2.05 620.41-0.73 618.43 0.6 615.38 0.6ZM616.38-3.4L616.38-3.4Q618.28-3.4 619.98-4.33 621.68-5.25 622.83-6.65L622.83-6.65 622.83-20.6Q621.48-21.55 619.86-22.13 618.23-22.7 616.43-22.7L616.43-22.7Q614.03-22.7 612.21-21.48 610.38-20.25 609.33-18.07 608.28-15.9 608.28-13L608.28-13Q608.28-10.2 609.33-8.03 610.38-5.85 612.23-4.63 614.08-3.4 616.38-3.4ZM660.38 0.6L660.38 0.6Q656.63 0.6 654.45-1.88 652.28-4.35 652.28-8.95L652.28-8.95 652.28-21.15 647.78-21.15 647.78-25.05 652.38-25.05 653.33-33.25 656.78-33.25 656.78-25.05 663.98-25.05 663.98-21.15 656.78-21.15 656.78-8.6Q656.78-5.7 658-4.55 659.23-3.4 660.93-3.4L660.93-3.4Q662.18-3.4 663.3-3.8 664.43-4.2 665.38-4.75L665.38-4.75 666.63-1.15Q665.63-0.55 663.93 0.03 662.23 0.6 660.38 0.6ZM675.63 0L671.13 0 671.13-37 675.63-37 675.63-21.85Q677.03-23.9 679.18-25.25 681.33-26.6 684.23-26.6L684.23-26.6Q688.63-26.6 690.8-23.95 692.98-21.3 692.98-16.95L692.98-16.95 692.98 0 688.48 0 688.48-16.45Q688.48-19.25 687.18-20.95 685.88-22.65 683.53-22.65L683.53-22.65Q681.23-22.65 679.15-21.03 677.08-19.4 675.63-17.2L675.63-17.2 675.63 0ZM711.67 0.6L711.67 0.6Q707.97 0.6 705.02-1.13 702.07-2.85 700.4-5.93 698.72-9 698.72-13L698.72-13Q698.72-17.2 700.42-20.25 702.12-23.3 705.07-24.95 708.02-26.6 711.67-26.6L711.67-26.6Q715.32-26.6 718.25-24.95 721.17-23.3 722.9-20.28 724.62-17.25 724.62-13.1L724.62-13.1Q724.62-8.95 722.92-5.88 721.22-2.8 718.3-1.1 715.37 0.6 711.67 0.6ZM711.67-3.4L711.67-3.4Q715.62-3.4 717.82-6.08 720.02-8.75 720.02-13L720.02-13Q720.02-15.6 718.92-17.78 717.82-19.95 715.95-21.28 714.07-22.6 711.67-22.6L711.67-22.6Q707.72-22.6 705.52-20 703.32-17.4 703.32-13.1L703.32-13.1Q703.32-10.5 704.42-8.28 705.52-6.05 707.4-4.73 709.27-3.4 711.67-3.4ZM739.12 0.6L739.12 0.6Q736.87 0.6 734.87-0.35 732.87-1.3 731.62-3.43 730.37-5.55 730.37-9.1L730.37-9.1 730.37-26 734.87-26 734.87-9.7Q734.87-6.65 736.17-5.03 737.47-3.4 739.97-3.4L739.97-3.4Q742.02-3.4 743.95-4.23 745.87-5.05 747.37-6.45L747.37-6.45 747.37-26 751.87-26 751.87-6.75Q751.87-4.6 752.8-3.93 753.72-3.25 754.82-3.25L754.82-3.25 753.87 0.25Q749.22 0.25 748.12-3.45L748.12-3.45Q746.37-1.65 744.07-0.53 741.77 0.6 739.12 0.6ZM767.82 0.6L767.82 0.6Q764.87 0.6 762.49-0.15 760.12-0.9 758.57-2.1L758.57-2.1 760.47-5.85Q761.77-4.75 763.74-4.03 765.72-3.3 767.97-3.3L767.97-3.3Q770.77-3.3 772.19-4.23 773.62-5.15 773.62-6.6L773.62-6.6Q773.62-7.65 773.09-8.45 772.57-9.25 771.17-10.03 769.77-10.8 767.12-11.7L767.12-11.7Q763.47-12.95 761.64-14.68 759.82-16.4 759.82-19.45L759.82-19.45Q759.82-22.45 762.44-24.53 765.07-26.6 769.72-26.6L769.72-26.6Q772.22-26.6 774.17-26.08 776.12-25.55 777.67-24.75L777.67-24.75 776.42-21.05Q775.07-21.85 773.34-22.35 771.62-22.85 769.52-22.85L769.52-22.85Q766.92-22.85 765.57-21.8 764.22-20.75 764.22-19.5L764.22-19.5Q764.22-18.3 765.27-17.45 766.32-16.6 769.37-15.6L769.37-15.6Q774.32-13.95 776.27-11.95 778.22-9.95 778.22-6.95L778.22-6.95Q778.22-3.45 775.39-1.43 772.57 0.6 767.82 0.6ZM794.17 0.6L794.17 0.6Q790.92 0.6 788.27-1.05 785.62-2.7 784.04-5.73 782.47-8.75 782.47-12.85L782.47-12.85Q782.47-16.75 784.04-19.85 785.62-22.95 788.39-24.78 791.17-26.6 794.77-26.6L794.77-26.6Q797.02-26.6 798.84-25.83 800.67-25.05 802.02-23.9L802.02-23.9 802.02-26 806.12-26 806.12-6.3Q806.12-4.4 807.04-3.83 807.97-3.25 809.07-3.25L809.07-3.25 808.12 0.25Q803.32 0.25 802.32-3.65L802.32-3.65Q801.17-2.05 799.19-0.73 797.22 0.6 794.17 0.6ZM795.17-3.4L795.17-3.4Q797.07-3.4 798.77-4.33 800.47-5.25 801.62-6.65L801.62-6.65 801.62-20.6Q800.27-21.55 798.64-22.13 797.02-22.7 795.22-22.7L795.22-22.7Q792.82-22.7 790.99-21.48 789.17-20.25 788.12-18.07 787.07-15.9 787.07-13L787.07-13Q787.07-10.2 788.12-8.03 789.17-5.85 791.02-4.63 792.87-3.4 795.17-3.4ZM819.56 0L815.06 0 815.06-26 819.41-26 819.41-21.65Q820.81-23.75 822.99-25.18 825.16-26.6 828.16-26.6L828.16-26.6Q832.56-26.6 834.74-23.95 836.91-21.3 836.91-16.95L836.91-16.95 836.91 0 832.41 0 832.41-16.45Q832.41-19.25 831.09-20.95 829.76-22.65 827.41-22.65L827.41-22.65Q825.11-22.65 823.06-21.03 821.01-19.4 819.56-17.2L819.56-17.2 819.56 0ZM854.51 0.6L854.51 0.6Q851.31 0.6 848.66-1.05 846.01-2.7 844.46-5.73 842.91-8.75 842.91-12.85L842.91-12.85Q842.91-16.8 844.49-19.9 846.06-23 848.69-24.8 851.31-26.6 854.46-26.6L854.46-26.6Q857.06-26.6 858.94-25.55 860.81-24.5 861.86-23.4L861.86-23.4 861.86-37 866.36-37 866.36-6.3Q866.36-4.4 867.29-3.83 868.21-3.25 869.31-3.25L869.31-3.25 868.36 0.25Q863.61 0.25 862.56-3.55L862.56-3.55Q861.46-2 859.49-0.7 857.51 0.6 854.51 0.6ZM855.51-3.4L855.51-3.4Q857.36-3.4 859.04-4.28 860.71-5.15 861.86-6.55L861.86-6.55 861.86-19.45Q860.91-20.65 859.21-21.68 857.51-22.7 855.46-22.7L855.46-22.7Q853.06-22.7 851.26-21.4 849.46-20.1 848.49-17.93 847.51-15.75 847.51-13L847.51-13Q847.51-10.25 848.56-8.08 849.61-5.9 851.44-4.65 853.26-3.4 855.51-3.4ZM897.31 0.6L897.31 0.6Q894.36 0.6 891.98-0.15 889.61-0.9 888.06-2.1L888.06-2.1 889.96-5.85Q891.26-4.75 893.23-4.03 895.21-3.3 897.46-3.3L897.46-3.3Q900.26-3.3 901.68-4.23 903.11-5.15 903.11-6.6L903.11-6.6Q903.11-7.65 902.58-8.45 902.06-9.25 900.66-10.03 899.26-10.8 896.61-11.7L896.61-11.7Q892.96-12.95 891.13-14.68 889.31-16.4 889.31-19.45L889.31-19.45Q889.31-22.45 891.93-24.53 894.56-26.6 899.21-26.6L899.21-26.6Q901.71-26.6 903.66-26.08 905.61-25.55 907.16-24.75L907.16-24.75 905.91-21.05Q904.56-21.85 902.83-22.35 901.11-22.85 899.01-22.85L899.01-22.85Q896.41-22.85 895.06-21.8 893.71-20.75 893.71-19.5L893.71-19.5Q893.71-18.3 894.76-17.45 895.81-16.6 898.86-15.6L898.86-15.6Q903.81-13.95 905.76-11.95 907.71-9.95 907.71-6.95L907.71-6.95Q907.71-3.45 904.88-1.43 902.06 0.6 897.31 0.6ZM922.8 0.6L922.8 0.6Q919.05 0.6 916.88-1.88 914.7-4.35 914.7-8.95L914.7-8.95 914.7-21.15 910.2-21.15 910.2-25.05 914.8-25.05 915.75-33.25 919.2-33.25 919.2-25.05 926.4-25.05 926.4-21.15 919.2-21.15 919.2-8.6Q919.2-5.7 920.43-4.55 921.65-3.4 923.35-3.4L923.35-3.4Q924.6-3.4 925.73-3.8 926.85-4.2 927.8-4.75L927.8-4.75 929.05-1.15Q928.05-0.55 926.35 0.03 924.65 0.6 922.8 0.6ZM943.5 0.6L943.5 0.6Q939.8 0.6 936.85-1.13 933.9-2.85 932.23-5.93 930.55-9 930.55-13L930.55-13Q930.55-17.2 932.25-20.25 933.95-23.3 936.9-24.95 939.85-26.6 943.5-26.6L943.5-26.6Q947.15-26.6 950.08-24.95 953-23.3 954.73-20.28 956.45-17.25 956.45-13.1L956.45-13.1Q956.45-8.95 954.75-5.88 953.05-2.8 950.13-1.1 947.2 0.6 943.5 0.6ZM943.5-3.4L943.5-3.4Q947.45-3.4 949.65-6.08 951.85-8.75 951.85-13L951.85-13Q951.85-15.6 950.75-17.78 949.65-19.95 947.78-21.28 945.9-22.6 943.5-22.6L943.5-22.6Q939.55-22.6 937.35-20 935.15-17.4 935.15-13.1L935.15-13.1Q935.15-10.5 936.25-8.28 937.35-6.05 939.23-4.73 941.1-3.4 943.5-3.4ZM966.95 0L962.45 0 962.45-26 966.8-26 966.8-20.35Q967.45-22 968.55-23.43 969.65-24.85 971.3-25.73 972.95-26.6 975.15-26.6L975.15-26.6Q975.9-26.6 976.65-26.53 977.4-26.45 977.9-26.3L977.9-26.3 976.55-21.65Q975.6-22.05 974.3-22.05L974.3-22.05Q972.45-22.05 970.77-21 969.1-19.95 968.02-17.75 966.95-15.55 966.95-12.15L966.95-12.15 966.95 0ZM986.9 0L982.4 0 982.4-26 986.9-26 986.9 0ZM984.65-30.45L984.65-30.45Q983.35-30.45 982.42-31.4 981.5-32.35 981.5-33.6L981.5-33.6Q981.5-35.05 982.35-35.9 983.2-36.75 984.65-36.75L984.65-36.75Q985.95-36.75 986.87-35.83 987.8-34.9 987.8-33.6L987.8-33.6Q987.8-32.2 986.95-31.33 986.1-30.45 984.65-30.45ZM1005.29 0.6L1005.29 0.6Q999.69 0.6 996.42-2.98 993.14-6.55 993.14-13L993.14-13Q993.14-16.9 994.62-19.98 996.09-23.05 998.74-24.83 1001.39-26.6 1004.89-26.6L1004.89-26.6Q1008.64-26.6 1011.12-24.98 1013.59-23.35 1014.84-20.6 1016.09-17.85 1016.09-14.55L1016.09-14.55Q1016.09-12.8 1015.94-11.15L1015.94-11.15 997.74-11.15Q998.19-7.5 1000.29-5.45 1002.39-3.4 1005.84-3.4L1005.84-3.4Q1008.09-3.4 1009.89-3.88 1011.69-4.35 1013.34-5.1L1013.34-5.1 1014.39-1.25Q1012.59-0.45 1010.34 0.08 1008.09 0.6 1005.29 0.6ZM997.69-14.8L997.69-14.8 1011.94-14.8Q1011.94-18.6 1010.04-20.65 1008.14-22.7 1004.79-22.7L1004.79-22.7Q1001.89-22.7 999.99-20.68 998.09-18.65 997.69-14.8ZM1029.09 0.6L1029.09 0.6Q1026.14 0.6 1023.77-0.15 1021.39-0.9 1019.84-2.1L1019.84-2.1 1021.74-5.85Q1023.04-4.75 1025.02-4.03 1026.99-3.3 1029.24-3.3L1029.24-3.3Q1032.04-3.3 1033.47-4.23 1034.89-5.15 1034.89-6.6L1034.89-6.6Q1034.89-7.65 1034.37-8.45 1033.84-9.25 1032.44-10.03 1031.04-10.8 1028.39-11.7L1028.39-11.7Q1024.74-12.95 1022.92-14.68 1021.09-16.4 1021.09-19.45L1021.09-19.45Q1021.09-22.45 1023.72-24.53 1026.34-26.6 1030.99-26.6L1030.99-26.6Q1033.49-26.6 1035.44-26.08 1037.39-25.55 1038.94-24.75L1038.94-24.75 1037.69-21.05Q1036.34-21.85 1034.62-22.35 1032.89-22.85 1030.79-22.85L1030.79-22.85Q1028.19-22.85 1026.84-21.8 1025.49-20.75 1025.49-19.5L1025.49-19.5Q1025.49-18.3 1026.54-17.45 1027.59-16.6 1030.64-15.6L1030.64-15.6Q1035.59-13.95 1037.54-11.95 1039.49-9.95 1039.49-6.95L1039.49-6.95Q1039.49-3.45 1036.67-1.43 1033.84 0.6 1029.09 0.6ZM1048.99 0.6L1048.99 0.6Q1047.64 0.6 1046.64-0.4 1045.64-1.4 1045.64-2.75L1045.64-2.75Q1045.64-4.3 1046.54-5.2 1047.44-6.1 1048.99-6.1L1048.99-6.1Q1050.29-6.1 1051.31-5.1 1052.34-4.1 1052.34-2.75L1052.34-2.75Q1052.34-1.25 1051.39-0.33 1050.44 0.6 1048.99 0.6Z" opacity="1" transform="matrix(1,0,0,1,0,0)" fill="#000000" class="slogan-text-1" data-fill-palette-color="secondary" id="text-1"></path></svg></g></svg></g></svg></g></svg></g><g></g></svg></g></svg></g></svg></g></svg></g><defs></defs></svg><rect width="395.52" height="247.2" fill="none" stroke="none" visibility="hidden"></rect></g></svg></g></svg>